<?xml version="1.0" standalone="no"?>
<!DOCTYPE svg PUBLIC "-//W3C//DTD SVG 20010904//EN"
 "http://www.w3.org/TR/2001/REC-SVG-20010904/DTD/svg10.dtd">
<svg version="1.0" xmlns="http://www.w3.org/2000/svg"
 width="512.000000pt" height="512.000000pt" viewBox="0 0 512.000000 512.000000"
 preserveAspectRatio="xMidYMid meet">

<g transform="translate(0.000000,512.000000) scale(0.100000,-0.100000)"
fill="#000000" stroke="none">
<path d="M1375 4465 c-17 -9 -146 -139 -288 -290 l-258 -275 -125 113 c-168
150 -205 167 -291 127 -74 -33 -108 -117 -79 -193 13 -35 53 -76 212 -217 189
-170 245 -209 291 -210 64 0 96 28 413 366 173 185 323 350 333 367 13 23 17
46 14 80 -10 111 -125 179 -222 132z"/>
<path d="M2172 4143 c-18 -9 -45 -32 -60 -51 -39 -51 -38 -134 0 -184 56 -73
-43 -68 1328 -68 1371 0 1272 -5 1328 68 39 51 39 133 0 184 -56 73 44 68
-1330 68 -1121 0 -1236 -2 -1266 -17z"/>
<path d="M1375 3025 c-17 -9 -146 -139 -288 -290 l-258 -275 -125 113 c-168
150 -205 167 -291 127 -74 -33 -108 -117 -79 -193 13 -35 53 -76 212 -217 189
-170 245 -209 291 -210 64 0 96 28 413 366 173 185 323 350 333 367 13 23 17
46 14 80 -10 111 -125 179 -222 132z"/>
<path d="M2172 2703 c-18 -9 -45 -32 -60 -51 -39 -51 -38 -134 0 -184 56 -73
-43 -68 1328 -68 1371 0 1272 -5 1328 68 39 51 39 133 0 184 -56 73 44 68
-1330 68 -1121 0 -1236 -2 -1266 -17z"/>
<path d="M1351 1568 c-17 -13 -141 -141 -276 -285 l-246 -263 -125 113 c-168
150 -205 166 -291 127 -74 -33 -108 -117 -79 -193 13 -35 53 -76 212 -217 189
-170 245 -209 291 -210 64 0 96 28 413 366 173 185 320 346 327 358 20 34 16
116 -7 154 -44 72 -153 97 -219 50z"/>
<path d="M2172 1263 c-18 -9 -45 -32 -60 -51 -39 -51 -38 -134 0 -184 56 -73
-43 -68 1328 -68 1371 0 1272 -5 1328 68 39 51 39 133 0 184 -56 73 44 68
-1330 68 -1121 0 -1236 -2 -1266 -17z"/>
</g>
</svg>
